<svg width="20" height="22" viewBox="0 0 20 22" fill="none" xmlns="http://www.w3.org/2000/svg">
<path fill-rule="evenodd" clip-rule="evenodd" d="M6.69508 9.44041H3.065C2.53235 9.43603 2.01976 9.64342 1.64001 10.0169C1.26025 10.3904 1.04443 10.8995 1.04004 11.4321V18.97C1.0499 20.0787 1.95631 20.9698 3.065 20.9604H6.69508C7.22769 20.9649 7.74033 20.7575 8.1201 20.384C8.49988 20.0105 8.71569 19.5015 8.72004 18.9687V11.4321C8.71569 10.8995 8.49988 10.3904 8.1201 10.0169C7.74033 9.64342 7.22769 9.43603 6.69508 9.44041Z" stroke="black" stroke-width="2" stroke-linecap="round" stroke-linejoin="round"/>
<path fill-rule="evenodd" clip-rule="evenodd" d="M6.69508 1.76054H3.065C1.97861 1.73041 1.07279 2.58527 1.04004 3.67158V4.9695C1.07279 6.05582 1.97861 6.91068 3.065 6.88054H6.69508C7.78142 6.91068 8.68727 6.05582 8.72004 4.9695V3.67158C8.68727 2.58527 7.78142 1.73041 6.69508 1.76054Z" stroke="black" stroke-width="2" stroke-linecap="round" stroke-linejoin="round"/>
<path fill-rule="evenodd" clip-rule="evenodd" d="M13.305 13.2807H16.9338C17.4667 13.2854 17.9796 13.0782 18.3596 12.7047C18.7396 12.331 18.9557 11.8219 18.96 11.289V3.7523C18.9557 3.21966 18.7399 2.71058 18.3601 2.33706C17.9803 1.96355 17.4677 1.75619 16.9351 1.76062H13.305C12.7724 1.75619 12.2598 1.96355 11.88 2.33706C11.5002 2.71058 11.2844 3.21966 11.28 3.7523V11.289C11.2844 11.8216 11.5002 12.3307 11.88 12.7042C12.2598 13.0777 12.7724 13.285 13.305 13.2807Z" stroke="black" stroke-width="2" stroke-linecap="round" stroke-linejoin="round"/>
<path fill-rule="evenodd" clip-rule="evenodd" d="M13.305 20.9605H16.9338C18.0206 20.9914 18.9273 20.1363 18.96 19.0495V17.7516C18.9273 16.6652 18.0214 15.8105 16.9351 15.8405H13.305C12.2187 15.8105 11.3128 16.6652 11.28 17.7516V19.0482C11.312 20.1351 12.2182 20.9906 13.305 20.9605Z" stroke="black" stroke-width="2" stroke-linecap="round" stroke-linejoin="round"/>
</svg>
