<svg width="34" height="34" viewBox="0 0 34 34" fill="none" xmlns="http://www.w3.org/2000/svg">
<path d="M14.4 32.3415L0.9 18.8415C-0.3 17.6415 -0.3 15.7665 0.9 14.5665L14.4 1.0665C15.6 -0.133496 17.475 -0.133496 18.675 1.0665L32.175 14.5665C33.375 15.7665 33.375 17.6415 32.175 18.8415L18.675 32.3415C17.475 33.5415 15.525 33.5415 14.4 32.3415Z" fill="#E98686"/>
<path d="M14.7 23.2665C14.7 23.0415 14.775 22.8165 14.85 22.5915C14.925 22.3665 15.075 22.2165 15.225 22.0665C15.375 21.9165 15.6 21.7665 15.825 21.6915C16.05 21.6165 16.275 21.5415 16.575 21.5415C16.875 21.5415 17.1 21.6165 17.325 21.6915C17.55 21.7665 17.775 21.9165 17.925 22.0665C18.075 22.2165 18.225 22.3665 18.3 22.5915C18.375 22.8165 18.45 23.0415 18.45 23.2665C18.45 23.4915 18.375 23.7165 18.3 23.9415C18.225 24.1665 18.075 24.3165 17.925 24.4665C17.775 24.6165 17.55 24.7665 17.325 24.8415C17.1 24.9165 16.875 24.9915 16.575 24.9915C16.275 24.9915 16.05 24.9165 15.825 24.8415C15.6 24.7665 15.45 24.6165 15.225 24.4665C15.075 24.3165 14.925 24.1665 14.85 23.9415C14.775 23.7165 14.7 23.5665 14.7 23.2665ZM17.85 19.8165H15.15L14.775 8.4915H18.225L17.85 19.8165Z" fill="white"/>
</svg>
