<svg width="31" height="31" viewBox="0 0 31 31" fill="none" xmlns="http://www.w3.org/2000/svg">
<g clip-path="url(#clip0_82_79)">
<circle cx="14.9417" cy="15.6553" r="15" fill="#BBC1FC"/>
<path d="M19.1507 7.57861H10.9457C9.36213 7.57861 8.08594 8.80171 8.08594 10.2866V22.2084C8.08594 23.6934 9.36213 24.8863 10.9457 24.8863H19.1507C20.7342 24.8863 22.0346 23.6934 22.0346 22.2084V10.2866C22.0346 8.80171 20.7342 7.57861 19.1507 7.57861ZM21.2141 22.2084C21.2141 23.2692 20.2818 24.1171 19.1507 24.1171H10.9457C9.81454 24.1171 8.90643 23.2692 8.90643 22.2084V10.2866C8.90643 9.22585 9.81454 8.34783 10.9457 8.34783H19.1507C20.2818 8.34783 21.2141 9.22582 21.2141 10.2866V22.2084Z" fill="black"/>
<path d="M18.7525 9.50146H11.3679V10.2707H18.7525V9.50146Z" fill="black"/>
<path d="M11.3681 13.3481H10.9579C10.7313 13.3481 10.5476 13.5203 10.5476 13.7328V14.502C10.5476 14.7144 10.7313 14.8866 10.9579 14.8866H11.3681C11.5947 14.8866 11.7784 14.7144 11.7784 14.502V13.7327C11.7784 13.5203 11.5947 13.3481 11.3681 13.3481Z" fill="black"/>
<path d="M11.3681 16.8091H10.9579C10.7313 16.8091 10.5476 16.9813 10.5476 17.1937V17.9629C10.5476 18.1753 10.7313 18.3475 10.9579 18.3475H11.3681C11.5947 18.3475 11.7784 18.1753 11.7784 17.9629V17.1937C11.7784 16.9813 11.5947 16.8091 11.3681 16.8091Z" fill="black"/>
<path d="M11.3681 20.2705H10.9579C10.7313 20.2705 10.5476 20.4427 10.5476 20.6551V21.4243C10.5476 21.6367 10.7313 21.809 10.9579 21.809H11.3681C11.5947 21.809 11.7784 21.6368 11.7784 21.4243V20.6551C11.7784 20.4427 11.5947 20.2705 11.3681 20.2705Z" fill="black"/>
<path d="M19.5731 13.7329H13.009V14.5022H19.5731V13.7329Z" fill="black"/>
<path d="M19.5731 17.1938H13.009V17.9631H19.5731V17.1938Z" fill="black"/>
<path d="M19.5731 20.6558H13.009V21.425H19.5731V20.6558Z" fill="black"/>
</g>
<defs>
<clipPath id="clip0_82_79">
<rect width="31" height="31" fill="white"/>
</clipPath>
</defs>
</svg>
