<svg width="40" height="30" viewBox="0 0 40 30" fill="none" xmlns="http://www.w3.org/2000/svg">
<path d="M37.8249 25.4167C37.2067 26.026 36.4298 26.4497 35.5828 26.6394C34.7357 26.8292 33.8524 26.7774 33.0332 26.49L28.5291 30.9942C28.4683 31.0574 28.3954 31.1076 28.3147 31.142C28.234 31.1763 28.1472 31.194 28.0595 31.194C27.9718 31.194 27.885 31.1763 27.8043 31.142C27.7236 31.1076 27.6507 31.0574 27.5899 30.9942L25.6733 29.0775C25.5547 28.9499 25.4888 28.7821 25.4888 28.6079C25.4888 28.4337 25.5547 28.266 25.6733 28.1383L30.1966 23.6342C29.8817 22.7604 29.8399 21.8115 30.0767 20.9134C30.3135 20.0152 30.8177 19.2103 31.5224 18.6054C32.2272 18.0004 33.0992 17.6239 34.0229 17.5259C34.9465 17.428 35.8781 17.613 36.6941 18.0567L33.6466 21.2L35.5633 23.1167L38.6682 20.0117C39.1278 20.8834 39.2939 21.8802 39.142 22.8539C38.9901 23.8276 38.5282 24.7263 37.8249 25.4167ZM39.1666 4.33333V15.3733C37.7501 14.4214 36.0816 13.9141 34.3749 13.9167C33.5376 13.9192 32.7049 14.0419 31.9024 14.2808V6.80583H28.9316V15.8333C27.9352 16.644 27.1324 17.667 26.582 18.8276C26.0315 19.9882 25.7472 21.2571 25.7499 22.5417C25.7303 22.8608 25.7303 23.1809 25.7499 23.5H4.66658C3.64992 23.5 2.6749 23.0961 1.95601 22.3772C1.23712 21.6583 0.833252 20.6833 0.833252 19.6667V4.33333C0.833252 3.31667 1.23712 2.34165 1.95601 1.62276C2.6749 0.903868 3.64992 0.5 4.66658 0.5H35.3332C36.3499 0.5 37.3249 0.903868 38.0438 1.62276C38.7627 2.34165 39.1666 3.31667 39.1666 4.33333ZM18.0833 17.75L14.4224 6.7675H10.4166L6.90908 17.75H10.1674L10.7233 15.6992H14.2499L14.8058 17.75H18.0833ZM27.2257 10.2942C27.2571 9.81124 27.1785 9.3275 26.9959 8.87932C26.8133 8.43115 26.5315 8.03021 26.1716 7.70667C25.2773 7.04527 24.1759 6.72573 23.0666 6.80583H19.2333V17.75H22.1849V14.1275H23.0282C23.6818 14.1387 24.3318 14.0282 24.9449 13.8017C25.4303 13.6195 25.869 13.3314 26.2291 12.9583C26.5494 12.6072 26.7854 12.1877 26.9191 11.7317C27.0859 11.2702 27.1765 10.7847 27.1874 10.2942H27.2257ZM13.2341 11.4825L13.0041 10.6392L12.7166 9.5275C12.7166 9.125 12.5633 8.81833 12.5058 8.56917C12.4582 8.879 12.3942 9.1861 12.3141 9.48916C12.3141 9.85333 12.1608 10.2175 12.0649 10.5817C11.9691 10.9458 11.9116 11.2333 11.8349 11.4825L11.3749 13.265H13.6558L13.2341 11.4825ZM23.9483 9.56583C23.8216 9.44541 23.6703 9.35391 23.5049 9.29765C23.3394 9.24139 23.1637 9.22173 22.9899 9.24H22.2232V11.7508H22.8174C23.0606 11.7566 23.3023 11.7109 23.5266 11.6167C23.7376 11.5314 23.9179 11.3844 24.0441 11.195C24.1922 10.9533 24.2655 10.6732 24.2549 10.39C24.2549 10.2236 24.217 10.0594 24.1439 9.90995C24.0708 9.76047 23.9646 9.62966 23.8333 9.5275L23.9483 9.56583Z" fill="#FECE54"/>
</svg>
