<svg width="36" height="36" viewBox="0 0 36 36" fill="none" xmlns="http://www.w3.org/2000/svg">
<path d="M30.966 30.7806C31.6854 30.0687 31.6855 28.91 30.9662 28.198C30.6178 27.8533 30.1542 27.6631 29.6613 27.6631C29.1687 27.6631 28.7052 27.8533 28.3566 28.1984C27.6374 28.9101 27.6374 30.0686 28.3567 30.7805C29.0763 31.4923 30.2467 31.4923 30.966 30.7806ZM28.9305 30.2125C28.7354 30.0194 28.6279 29.7626 28.6279 29.4892C28.6279 29.2161 28.7354 28.959 28.9305 28.7659C29.1259 28.5728 29.3855 28.4663 29.6616 28.4663C29.9376 28.4663 30.1971 28.5728 30.3924 28.7659C30.7953 29.1648 30.7953 29.8136 30.3922 30.2125C29.9892 30.6115 29.3336 30.6113 28.9305 30.2125Z" fill="#E98686"/>
<path d="M34.1858 8.03239C34.1862 8.03187 34.1867 8.03153 34.1872 8.03109C34.188 8.03023 34.1888 8.02927 34.1897 8.02841L34.3009 7.91831L34.2982 7.91553C35.952 6.15925 35.9156 3.39925 34.1869 1.68841C33.331 0.841274 32.193 0.374714 30.9825 0.374714C29.826 0.374714 28.7362 0.801494 27.8948 1.57831L27.8921 1.57563L27.7807 1.68577C27.7798 1.68669 27.7789 1.68747 27.778 1.68839C27.7776 1.68881 27.7772 1.68929 27.7768 1.68977L1.15352 28.0381L1.16388 28.0483C1.01507 28.1433 0.907253 28.2993 0.881366 28.4865L0.00580727 34.8157C-0.0208479 35.0087 0.0452141 35.2027 0.18427 35.3404C0.302995 35.4578 0.46329 35.5225 0.62894 35.5225C0.657273 35.5225 0.685787 35.5206 0.714301 35.5168L7.10934 34.6501C7.29859 34.6245 7.45618 34.5177 7.55215 34.3705L7.5625 34.3807L34.1858 8.03239ZM30.9825 1.61955C31.857 1.61955 32.6791 1.95659 33.2974 2.56859C34.4219 3.68135 34.5559 5.40899 33.6995 6.66825L29.1546 2.17047C29.6903 1.81215 30.3215 1.61955 30.9825 1.61955ZM27.8921 3.33605L32.5221 7.91829L7.5625 32.6203L5.82062 30.8965L25.8559 11.0683L24.6565 9.88143L4.62148 29.7098L2.93234 28.0381L27.8921 3.33605ZM1.36435 34.1723L2.0854 28.9602L6.63062 33.4585L1.36435 34.1723Z" fill="#E98686"/>
<path d="M10.0568 16.0673L11.2045 14.9315L2.02073 5.84247L5.76805 2.13373L7.54488 3.89237L6.25573 5.16803L7.27347 6.17521L8.56262 4.89963L9.59856 5.92479L8.30941 7.20055L9.32717 8.20763L10.6164 6.93205L11.6523 7.95739L9.74507 9.84445L10.7631 10.8517L12.67 8.96447L13.9331 10.2144L12.644 11.4905L13.6617 12.4975L14.9509 11.2217L14.9517 11.2226L16.0994 10.0869L6.34177 0.430114C6.02486 0.116394 5.51116 0.116394 5.19425 0.430114L0.299317 5.27457C-0.0176954 5.58823 -0.0176954 6.09671 0.299317 6.41035L10.0568 16.0673Z" fill="#E98686"/>
<path d="M35.7623 29.5434C35.7476 29.5288 35.7324 29.5149 35.717 29.5017L25.5059 19.3963L22.4512 22.4194L23.4669 23.4246L25.374 21.5372L34.0392 30.1129L30.2917 33.8215L20.6109 24.2407L19.4633 25.3767L29.7179 35.5252C30.0348 35.839 30.5485 35.839 30.8655 35.5252L35.7607 30.6809C35.7611 30.6803 35.7616 30.6799 35.7623 30.6792C36.0792 30.3657 36.0792 29.8571 35.7623 29.5434Z" fill="#E98686"/>
</svg>
