<svg width="36" height="27" viewBox="0 0 36 27" fill="none" xmlns="http://www.w3.org/2000/svg">
<path d="M21.3686 12.3939L23.2997 10.4674L21.33 8.49925L19.4035 10.4303C18.5956 9.88034 17.6733 9.49876 16.6814 9.3056V6.5758H13.9038V9.30711C12.9089 9.49869 11.9912 9.87869 11.1864 10.4302L9.25532 8.49918L7.29025 10.4673L9.21514 12.3938C8.67292 13.2018 8.29134 14.1179 8.09818 15.1159H5.36379V17.892H8.09818C8.29126 18.8838 8.67134 19.8014 9.21514 20.6094L7.29025 22.5405L9.25374 24.5055L11.1848 22.5776C11.9896 23.1245 12.9089 23.506 13.9038 23.6991V26.432H16.683V23.6991C17.6748 23.5091 18.594 23.129 19.4051 22.5807L21.3315 24.5055L23.3013 22.5405L21.3702 20.6094C21.9171 19.8046 22.3003 18.8838 22.4856 17.892H25.2231V15.1159H22.484C22.297 14.1179 21.917 13.2019 21.3686 12.3939ZM15.2911 19.5389C13.618 19.5389 12.2601 18.1748 12.2601 16.4986C12.2601 14.827 13.618 13.4661 15.2911 13.4661C16.9688 13.4661 18.3283 14.8271 18.3283 16.4986C18.3298 18.1748 16.9703 19.5389 15.2911 19.5389Z" fill="#FECE54"/>
<path d="M24.069 3.04587C21.6328 1.48709 18.7516 0.567871 15.648 0.567871C7.00593 0.567943 0 7.57237 0 16.2143C0 19.8262 1.23592 23.1369 3.2875 25.7879L5.25257 23.8244C3.68914 21.6909 2.73754 19.0817 2.73754 16.2267C2.73754 9.09719 8.51686 3.32095 15.6464 3.32095C18.0178 3.32095 20.2053 4.00534 22.1163 5.13312L20.6085 6.7398L26.7369 7.29592L26.0788 0.897101L24.069 3.04587Z" fill="#FECE54"/>
<path d="M36 16.5434L32.161 12.706V14.8549H27.1078V18.2319H32.161V20.3855L36 16.5434Z" fill="#FECE54"/>
</svg>
