<svg width="31" height="31" viewBox="0 0 31 31" fill="none" xmlns="http://www.w3.org/2000/svg">
<path d="M30 15C30 23.2843 23.2843 30 15 30C6.71573 30 0 23.2843 0 15C0 6.71573 6.71573 0 15 0C23.2843 0 30 6.71573 30 15Z" fill="#BBC1FC"/>
<path d="M17.1701 20.6198C17.1701 21.1294 17.0214 21.5293 16.7242 21.8195C16.434 22.1097 16.0235 22.2548 15.4926 22.2548C14.9689 22.2548 14.5583 22.1132 14.2611 21.8301C13.9709 21.547 13.8258 21.1436 13.8258 20.6198C13.8258 20.0961 13.9673 19.6962 14.2505 19.4201C14.5406 19.1441 14.9547 19.0061 15.4926 19.0061C16.0305 19.0061 16.4446 19.1476 16.7348 19.4307C17.025 19.7139 17.1701 20.1102 17.1701 20.6198ZM17.1701 8.02831L16.6817 17.3711H14.3566L13.8682 8.02831H17.1701Z" fill="black"/>
</svg>
