<svg width="29" height="21" viewBox="0 0 29 21" fill="none" xmlns="http://www.w3.org/2000/svg">
<path d="M3.25 8.5C3.25 5.6005 5.6005 3.25 8.5 3.25V2.75C5.32436 2.75 2.75 5.32436 2.75 8.5C2.75 11.6756 5.32436 14.25 8.5 14.25V13.75C5.6005 13.75 3.25 11.3995 3.25 8.5Z" fill="#BBC1FC"/>
<path fill-rule="evenodd" clip-rule="evenodd" d="M8.5 17C11.3592 17 13.8887 15.5883 15.4294 13.4238L26.9855 20.3575L28.0145 18.6425L16.3901 11.6678C16.7835 10.6888 17 9.61971 17 8.5C17 3.80558 13.1944 0 8.5 0C3.80558 0 0 3.80558 0 8.5C0 13.1944 3.80558 17 8.5 17ZM8.5 15C12.0899 15 15 12.0899 15 8.5C15 4.91015 12.0899 2 8.5 2C4.91015 2 2 4.91015 2 8.5C2 12.0899 4.91015 15 8.5 15Z" fill="#BBC1FC"/>
</svg>
