<svg width="26" height="26" viewBox="0 0 26 26" fill="none" xmlns="http://www.w3.org/2000/svg">
<path d="M13 16.25C14.795 16.25 16.25 14.795 16.25 13C16.25 11.205 14.795 9.75 13 9.75C11.205 9.75 9.75 11.205 9.75 13C9.75 14.795 11.205 16.25 13 16.25Z" stroke="black" stroke-width="2" stroke-linecap="round" stroke-linejoin="round"/>
<path d="M20.288 15.9544C20.1569 16.2515 20.1178 16.5809 20.1756 16.9004C20.2336 17.2199 20.3859 17.5147 20.613 17.7468L20.672 17.8059C20.8552 17.9888 21.0005 18.206 21.0996 18.4452C21.1987 18.6843 21.2498 18.9406 21.2498 19.1994C21.2498 19.4583 21.1987 19.7147 21.0996 19.9538C21.0005 20.1928 20.8552 20.4101 20.672 20.593C20.4892 20.7761 20.2718 20.9214 20.0328 21.0205C19.7937 21.1196 19.5373 21.1707 19.2785 21.1707C19.0196 21.1707 18.7633 21.1196 18.5242 21.0205C18.2851 20.9214 18.0679 20.7761 17.8849 20.593L17.8258 20.5339C17.5937 20.3069 17.299 20.1546 16.9795 20.0966C16.66 20.0387 16.3305 20.0778 16.0334 20.2089C15.7421 20.3338 15.4937 20.541 15.3187 20.8053C15.1438 21.0695 15.0499 21.3791 15.0486 21.6961V21.8635C15.0486 22.3858 14.8411 22.8869 14.4717 23.2563C14.1023 23.6256 13.6012 23.8332 13.0788 23.8332C12.5565 23.8332 12.0555 23.6256 11.6861 23.2563C11.3167 22.8869 11.1091 22.3858 11.1091 21.8635V21.7748C11.1015 21.4489 10.996 21.1327 10.8063 20.8675C10.6166 20.6022 10.3516 20.4003 10.0455 20.2877C9.74849 20.1567 9.41898 20.1176 9.09951 20.1754C8.78002 20.2334 8.48522 20.3857 8.25311 20.6127L8.19402 20.6718C8.01109 20.855 7.79385 21.0003 7.55474 21.0994C7.31561 21.1985 7.05931 21.2495 6.80046 21.2495C6.54162 21.2495 6.2853 21.1985 6.04619 21.0994C5.80706 21.0003 5.58983 20.855 5.4069 20.6718C5.22376 20.4889 5.07848 20.2716 4.97936 20.0325C4.88024 19.7934 4.82921 19.5371 4.82921 19.2783C4.82921 19.0194 4.88024 18.7631 4.97936 18.524C5.07848 18.2849 5.22376 18.0677 5.4069 17.8847L5.46599 17.8255C5.69303 17.5935 5.84534 17.2987 5.90327 16.9792C5.9612 16.6598 5.92209 16.3302 5.79099 16.0332C5.66615 15.7419 5.45886 15.4935 5.19463 15.3185C4.93041 15.1435 4.62078 15.0496 4.30387 15.0483H4.13644C3.61405 15.0483 3.11305 14.8409 2.74366 14.4714C2.37427 14.102 2.16675 13.601 2.16675 13.0786C2.16675 12.5562 2.37427 12.0553 2.74366 11.6859C3.11305 11.3164 3.61405 11.1089 4.13644 11.1089H4.22508C4.55106 11.1013 4.86721 10.9958 5.13242 10.8061C5.39764 10.6164 5.59965 10.3513 5.71221 10.0453C5.8433 9.74824 5.88241 9.41874 5.82448 9.09926C5.76656 8.77978 5.61425 8.48498 5.38721 8.25286L5.32811 8.19378C5.14497 8.01085 4.9997 7.79361 4.90057 7.55449C4.80145 7.31537 4.75042 7.05906 4.75042 6.80021C4.75042 6.54137 4.80145 6.28506 4.90057 6.04594C4.9997 5.80682 5.14497 5.58959 5.32811 5.40666C5.51104 5.22352 5.72828 5.07823 5.9674 4.97912C6.20651 4.87999 6.46283 4.82897 6.72168 4.82897C6.98052 4.82897 7.23683 4.87999 7.47595 4.97912C7.71506 5.07823 7.9323 5.22352 8.11523 5.40666L8.17432 5.46574C8.40643 5.69279 8.70123 5.84509 9.02072 5.90303C9.34019 5.96095 9.6697 5.92185 9.96675 5.79074H10.0455C10.3368 5.66591 10.5853 5.45861 10.7602 5.19439C10.9352 4.93016 11.0292 4.62054 11.0304 4.30363V4.1362C11.0304 3.6138 11.2379 3.11281 11.6073 2.74341C11.9767 2.37403 12.4777 2.1665 13.0001 2.1665C13.5225 2.1665 14.0235 2.37403 14.3928 2.74341C14.7622 3.11281 14.9698 3.6138 14.9698 4.1362V4.22484C14.971 4.54174 15.0649 4.85137 15.24 5.1156C15.4149 5.37982 15.6633 5.58712 15.9547 5.71196C16.2517 5.84306 16.5811 5.88216 16.9006 5.82424C17.2201 5.76631 17.515 5.61401 17.747 5.38696L17.8062 5.32787C17.989 5.14473 18.2063 4.99945 18.4455 4.90033C18.6845 4.8012 18.9409 4.75018 19.1997 4.75018C19.4586 4.75018 19.7149 4.8012 19.954 4.90033C20.1931 4.99945 20.4103 5.14473 20.5933 5.32787C20.7764 5.5108 20.9216 5.72804 21.0208 5.96715C21.1199 6.20626 21.1709 6.46258 21.1709 6.72143C21.1709 6.98027 21.1199 7.23659 21.0208 7.4757C20.9216 7.71482 20.7764 7.93206 20.5933 8.11499L20.5341 8.17407C20.3072 8.40619 20.1548 8.70099 20.0969 9.02047C20.0389 9.33995 20.078 9.66945 20.2091 9.9665V10.0453C20.334 10.3366 20.5413 10.585 20.8055 10.76C21.0697 10.935 21.3793 11.0289 21.6963 11.0301H21.8637C22.3861 11.0301 22.8871 11.2377 23.2565 11.6071C23.6258 11.9764 23.8334 12.4775 23.8334 12.9998C23.8334 13.5222 23.6258 14.0233 23.2565 14.3926C22.8871 14.762 22.3861 14.9696 21.8637 14.9696H21.7751C21.4582 14.9707 21.1486 15.0647 20.8844 15.2397C20.6201 15.4147 20.4128 15.6631 20.288 15.9544Z" stroke="black" stroke-width="2" stroke-linecap="round" stroke-linejoin="round"/>
</svg>
