<svg width="53" height="53" viewBox="0 0 53 53" fill="none" xmlns="http://www.w3.org/2000/svg">
<circle cx="26.178" cy="26.178" r="25.178" stroke="#BBC1FC" stroke-width="2"/>
<path d="M14.4985 21.7745V17.8414C14.4985 17.0716 15.3319 16.5905 15.9985 16.9754L25.8571 22.6672C26.1665 22.8459 26.5477 22.8459 26.8571 22.6672L36.7157 16.9754C37.3823 16.5905 38.2157 17.0716 38.2157 17.8414V21.7745C38.2157 22.1317 38.0251 22.4619 37.7157 22.6405L26.8571 28.9097C26.5477 29.0883 26.1665 29.0883 25.8571 28.9097L14.9985 22.6405C14.6891 22.4619 14.4985 22.1317 14.4985 21.7745Z" fill="#A39DE0" stroke="#A39DE0" stroke-width="2"/>
<path d="M14.4985 33.0513V29.1183C14.4985 28.3485 15.3319 27.8674 15.9985 28.2523L25.8571 33.9441C26.1665 34.1227 26.5477 34.1227 26.8571 33.9441L36.7157 28.2523C37.3823 27.8674 38.2157 28.3485 38.2157 29.1183V33.0513C38.2157 33.4086 38.0251 33.7387 37.7157 33.9173L26.8571 40.1865C26.5477 40.3652 26.1665 40.3652 25.8571 40.1865L14.9985 33.9173C14.6891 33.7387 14.4985 33.4086 14.4985 33.0513Z" fill="#A39DE0" stroke="#A39DE0" stroke-width="2"/>
</svg>
